<svg width="391.001" height="79" viewBox="0 0 391.001 79" xmlns="http://www.w3.org/2000/svg"><g id="svgGroup" stroke-linecap="round" fill-rule="evenodd" font-size="9pt" stroke="#000" stroke-width="0.25mm" fill="black" style="stroke:#000;stroke-width:0.25mm;fill:black"><path d="M 42.6 77.6 L 27.6 77.6 A 518.217 518.217 0 0 1 20 60.672 A 566.885 566.885 0 0 1 19.5 59.5 Q 15.5 50.1 11.9 40.9 Q 8.3 31.7 5.25 23.3 A 744.734 744.734 0 0 1 2.744 16.295 Q 1.614 13.083 0.636 10.192 A 433.043 433.043 0 0 1 0 8.3 L 17.2 8.3 Q 19.2 14.3 21.55 21.25 Q 23.9 28.2 26.35 35.1 Q 28.8 42 31.1 48.3 Q 33.4 54.6 35.4 59.2 A 257.017 257.017 0 0 0 36.888 55.511 Q 37.535 53.874 38.225 52.071 A 462.576 462.576 0 0 0 39.65 48.3 Q 42 42 44.45 35.1 Q 46.9 28.2 49.25 21.25 Q 51.6 14.3 53.6 8.3 L 70.2 8.3 Q 67.9 14.9 64.9 23.3 Q 61.9 31.7 58.3 40.9 Q 54.7 50.1 50.7 59.5 Q 46.7 68.9 42.6 77.6 Z" id="0" vector-effect="non-scaling-stroke"/><path d="M 119.3 56.2 L 85.5 56.2 A 9.847 9.847 0 0 0 89.338 63.155 A 12.174 12.174 0 0 0 89.8 63.5 Q 92.985 65.763 97.998 66.129 A 27.5 27.5 0 0 0 100 66.2 Q 104.1 66.2 108.05 65.45 Q 112 64.7 114.5 63.6 L 116.5 75.7 Q 115.3 76.3 113.3 76.9 Q 111.3 77.5 108.85 77.95 A 66.242 66.242 0 0 1 105.651 78.454 A 79.564 79.564 0 0 1 103.6 78.7 Q 100.8 79 98 79 A 40.566 40.566 0 0 1 92.142 78.598 Q 88.603 78.081 85.65 76.9 A 26.194 26.194 0 0 1 80.313 74.047 A 21.967 21.967 0 0 1 76.95 71.15 Q 73.5 67.5 71.85 62.5 A 33.158 33.158 0 0 1 70.279 54.199 A 39.024 39.024 0 0 1 70.2 51.7 A 38.609 38.609 0 0 1 70.641 45.716 Q 71.174 42.321 72.35 39.45 A 29.015 29.015 0 0 1 75.105 34.231 A 23.628 23.628 0 0 1 78 30.7 Q 81.5 27.2 86.05 25.4 Q 90.6 23.6 95.4 23.6 Q 106.6 23.6 113.1 30.45 A 21.774 21.774 0 0 1 117.95 38.834 Q 119.6 43.898 119.6 50.6 Q 119.6 51.9 119.5 53.45 Q 119.414 54.782 119.328 55.856 A 105.95 105.95 0 0 1 119.3 56.2 Z M 85.5 46 L 105.2 46 Q 105.1 44.1 104.55 42.3 Q 104 40.5 102.85 39.1 A 8.86 8.86 0 0 0 100.482 37.093 A 10.4 10.4 0 0 0 99.95 36.8 Q 98.397 36.002 96.176 35.911 A 14.215 14.215 0 0 0 95.6 35.9 Q 93.1 35.9 91.3 36.75 A 9.195 9.195 0 0 0 89.044 38.237 A 8.365 8.365 0 0 0 88.3 39 A 9.999 9.999 0 0 0 86.533 42.021 A 11.38 11.38 0 0 0 86.45 42.25 Q 85.8 44.1 85.5 46 Z" id="1" vector-effect="non-scaling-stroke"/><path d="M 177.5 0 L 177.5 75.9 A 47.532 47.532 0 0 1 175.493 76.452 Q 174.433 76.72 173.243 76.977 A 79.859 79.859 0 0 1 172.9 77.05 Q 170.3 77.6 167.45 78 Q 164.6 78.4 161.65 78.65 Q 158.7 78.9 156 78.9 Q 149.5 78.9 144.4 77 A 24.456 24.456 0 0 1 138.395 73.796 A 21.754 21.754 0 0 1 135.8 71.55 A 23.27 23.27 0 0 1 130.938 64.189 A 27.225 27.225 0 0 1 130.45 62.95 A 29.993 29.993 0 0 1 128.866 56.195 A 38.463 38.463 0 0 1 128.6 51.6 A 44.087 44.087 0 0 1 129.038 45.242 A 34.02 34.02 0 0 1 130.2 40.05 A 27.953 27.953 0 0 1 132.295 35.016 A 22.591 22.591 0 0 1 134.8 31.3 Q 137.8 27.7 142.15 25.8 A 22.434 22.434 0 0 1 148.056 24.17 A 29.235 29.235 0 0 1 152.1 23.9 A 27.498 27.498 0 0 1 154.951 24.041 A 20.138 20.138 0 0 1 157.65 24.5 A 29.365 29.365 0 0 1 161.664 25.805 A 33.254 33.254 0 0 1 162.6 26.2 L 162.6 2.4 L 177.5 0 Z M 162.6 65.7 L 162.6 38.6 A 9.561 9.561 0 0 0 161.322 37.918 Q 160.642 37.615 159.833 37.357 A 19.307 19.307 0 0 0 158.95 37.1 Q 156.7 36.5 154.4 36.5 Q 145.273 36.5 144.005 47.176 A 31.653 31.653 0 0 0 143.8 50.9 A 24.988 24.988 0 0 0 144.2 55.509 Q 144.914 59.309 146.9 62 A 10.048 10.048 0 0 0 153.66 66.013 A 15.251 15.251 0 0 0 156.1 66.2 A 46.882 46.882 0 0 0 158.255 66.153 A 36.93 36.93 0 0 0 159.8 66.05 Q 160.942 65.949 161.814 65.826 A 20.402 20.402 0 0 0 162.6 65.7 Z" id="2" vector-effect="non-scaling-stroke"/><path d="M 206.4 25 L 206.4 77.6 L 191.5 77.6 L 191.5 25 L 206.4 25 Z M 207.8 9.8 Q 207.8 13.9 205.15 16.25 Q 202.5 18.6 198.9 18.6 Q 195.3 18.6 192.65 16.25 A 7.711 7.711 0 0 1 190.127 11.51 A 11.094 11.094 0 0 1 190 9.8 Q 190 5.7 192.65 3.35 Q 195.3 1 198.9 1 Q 202.5 1 205.15 3.35 A 7.711 7.711 0 0 1 207.673 8.09 A 11.094 11.094 0 0 1 207.8 9.8 Z" id="3" vector-effect="non-scaling-stroke"/><path d="M 259.5 26.5 L 256.4 38.4 A 34.809 34.809 0 0 0 253.619 37.478 A 42.604 42.604 0 0 0 251.8 37 Q 249.3 36.4 246.2 36.4 Q 240.947 36.4 237.816 38.997 A 10.084 10.084 0 0 0 236.35 40.5 A 14.379 14.379 0 0 0 233.7 46.022 Q 233.1 48.421 233.1 51.3 A 26.628 26.628 0 0 0 233.413 55.52 Q 233.766 57.714 234.516 59.49 A 12.308 12.308 0 0 0 236.15 62.3 A 9.025 9.025 0 0 0 240.009 65.099 Q 241.558 65.718 243.513 65.989 A 24.004 24.004 0 0 0 246.8 66.2 A 33.322 33.322 0 0 0 250.147 66.024 A 41.823 41.823 0 0 0 252.6 65.7 A 26.003 26.003 0 0 0 256.54 64.757 A 22.251 22.251 0 0 0 258.3 64.1 L 260.4 76.3 A 25.139 25.139 0 0 1 258.267 77.083 Q 257.061 77.469 255.657 77.809 A 51.213 51.213 0 0 1 253.9 78.2 Q 250 79 245.3 79 Q 238.88 79 234.051 77.291 A 23.736 23.736 0 0 1 232.9 76.85 A 25.47 25.47 0 0 1 227.635 73.941 A 21.317 21.317 0 0 1 224.35 71 A 22.745 22.745 0 0 1 219.549 62.564 A 26.19 26.19 0 0 1 219.45 62.25 A 35.436 35.436 0 0 1 218.023 54.552 A 42.343 42.343 0 0 1 217.9 51.3 Q 217.9 45.6 219.75 40.55 Q 221.6 35.5 225.1 31.75 A 25.351 25.351 0 0 1 232.981 26.081 A 29.132 29.132 0 0 1 233.6 25.8 Q 238.6 23.6 245 23.6 A 40.948 40.948 0 0 1 249.474 23.834 A 32.196 32.196 0 0 1 252.7 24.35 Q 256.2 25.1 259.5 26.5 Z" id="4" vector-effect="non-scaling-stroke"/><path d="M 286.378 72.481 A 11.308 11.308 0 0 0 286.7 69.7 A 11.652 11.652 0 0 0 286.462 67.278 A 7.592 7.592 0 0 0 283.85 62.85 Q 281 60.5 277.4 60.5 Q 273.8 60.5 270.95 62.85 A 7.514 7.514 0 0 0 268.422 66.919 A 11.308 11.308 0 0 0 268.1 69.7 A 11.652 11.652 0 0 0 268.338 72.122 A 7.592 7.592 0 0 0 270.95 76.55 Q 273.8 78.9 277.4 78.9 Q 281 78.9 283.85 76.55 A 7.514 7.514 0 0 0 286.378 72.481 Z" id="5" vector-effect="non-scaling-stroke"/><path d="M 339.6 8.3 L 339.6 54.3 A 40.415 40.415 0 0 1 339.056 61.029 A 35.308 35.308 0 0 1 338.45 63.9 A 19.487 19.487 0 0 1 335.177 70.84 A 18.804 18.804 0 0 1 334.45 71.75 A 17.546 17.546 0 0 1 330.106 75.391 A 23.302 23.302 0 0 1 326.75 77.05 Q 321.9 79 314.5 79 Q 307.7 79 302.8 77.35 A 42.339 42.339 0 0 1 299.099 75.919 Q 297.264 75.102 295.752 74.18 A 22.768 22.768 0 0 1 294.7 73.5 L 299.9 61.4 A 44.425 44.425 0 0 0 306.048 64.38 A 48.491 48.491 0 0 0 306.1 64.4 A 18.888 18.888 0 0 0 311.74 65.646 A 22.365 22.365 0 0 0 313.3 65.7 A 18.288 18.288 0 0 0 316.253 65.479 Q 319.703 64.913 321.5 62.9 A 8.053 8.053 0 0 0 322.974 60.397 Q 323.86 58.093 323.981 54.627 A 32.289 32.289 0 0 0 324 53.5 L 324 8.3 L 339.6 8.3 Z" id="6" vector-effect="non-scaling-stroke"/><path d="M 388.7 26.3 L 386.1 37.9 A 50.881 50.881 0 0 0 382.674 36.853 A 61.702 61.702 0 0 0 380.45 36.3 Q 377.4 35.6 373.6 35.6 Q 369.213 35.6 367.575 37.132 A 3.095 3.095 0 0 0 366.6 39.5 Q 366.6 40.4 366.9 41.1 A 2.459 2.459 0 0 0 367.26 41.682 Q 367.455 41.921 367.724 42.154 A 5.468 5.468 0 0 0 368.1 42.45 A 10.691 10.691 0 0 0 368.796 42.909 Q 369.164 43.133 369.603 43.369 A 25.507 25.507 0 0 0 370.55 43.85 Q 371.61 44.363 373.066 44.945 A 70.727 70.727 0 0 0 374.5 45.5 Q 378.228 46.869 380.971 48.21 A 39.888 39.888 0 0 1 382.6 49.05 A 24.522 24.522 0 0 1 384.977 50.521 Q 386.552 51.633 387.65 52.85 A 11.939 11.939 0 0 1 389.989 56.63 A 11.425 11.425 0 0 1 390.25 57.4 A 16.955 16.955 0 0 1 390.811 60.089 Q 391 61.544 391 63.2 A 16.476 16.476 0 0 1 390.277 68.215 A 12.724 12.724 0 0 1 385.15 75 A 20.136 20.136 0 0 1 379.596 77.59 Q 376.985 78.383 373.832 78.73 A 47.902 47.902 0 0 1 368.6 79 Q 363.4 79 359.496 78.338 A 30.863 30.863 0 0 1 356.95 77.8 Q 352.377 76.62 350.561 75.827 A 10.146 10.146 0 0 1 350.5 75.8 L 353 63.7 Q 356.8 65.2 360.8 66.05 Q 364.8 66.9 368.7 66.9 Q 371.854 66.9 373.588 66.427 A 5.638 5.638 0 0 0 374.5 66.1 Q 376.2 65.3 376.2 63 A 2.953 2.953 0 0 0 375.506 61.12 Q 374.965 60.442 374 59.85 Q 371.8 58.5 367.3 56.8 A 76.329 76.329 0 0 1 363.568 55.306 A 59.824 59.824 0 0 1 360.95 54.1 A 20.242 20.242 0 0 1 357.865 52.244 A 16.737 16.737 0 0 1 356.1 50.75 Q 354.1 48.8 353 46.1 Q 351.9 43.4 351.9 39.6 A 15.983 15.983 0 0 1 352.808 34.099 A 13.746 13.746 0 0 1 357.4 27.9 Q 362.027 24.282 369.556 23.708 A 38.735 38.735 0 0 1 372.5 23.6 A 49.119 49.119 0 0 1 380.455 24.228 A 44.614 44.614 0 0 1 381.7 24.45 A 68.098 68.098 0 0 1 384.274 24.996 Q 386.827 25.593 388.584 26.256 A 20.128 20.128 0 0 1 388.7 26.3 Z" id="7" vector-effect="non-scaling-stroke"/></g></svg>